<?xml version="1.0" encoding="UTF-8"?>
<!DOCTYPE svg PUBLIC "-//W3C//DTD SVG 1.1//EN" "http://www.w3.org/Graphics/SVG/1.1/DTD/svg11.dtd">
<svg xmlns="http://www.w3.org/2000/svg" version="1.1" width="1444px" height="1980px" style="shape-rendering:geometricPrecision; text-rendering:geometricPrecision; image-rendering:optimizeQuality; fill-rule:evenodd; clip-rule:evenodd" xmlns:xlink="http://www.w3.org/1999/xlink">
<g><path style="opacity:0.995" fill="#caebfa" d="M 843.5,-0.5 C 865.833,-0.5 888.167,-0.5 910.5,-0.5C 955.6,2.68774 999.6,11.8544 1042.5,27C 1268.59,107.205 1400.42,266.038 1438,503.5C 1452.29,596.593 1428.62,678.26 1367,748.5C 1299.75,816.803 1218.59,843.303 1123.5,828C 1045.4,811.847 985.571,770.014 944,702.5C 927.657,674.139 916.657,643.805 911,611.5C 908.32,583.204 905.987,554.871 904,526.5C 892.043,429.715 847.876,351.548 771.5,292C 668.093,213.153 555.427,197.153 433.5,244C 329.895,285.279 262.062,359.446 230,466.5C 213.712,517.239 209.712,568.906 218,621.5C 230.51,684.037 260.676,736.204 308.5,778C 332.847,798.34 358.847,816.34 386.5,832C 587.334,953.58 787.667,1075.91 987.5,1199C 1018.02,1219.17 1046.52,1242.01 1073,1267.5C 1134.2,1336.99 1151.53,1416.33 1125,1505.5C 1092.45,1594.71 1029.61,1648.88 936.5,1668C 910.21,1672.19 883.877,1672.52 857.5,1669C 851.579,1668.19 845.912,1666.69 840.5,1664.5C 908.866,1617.39 935.7,1552.73 921,1470.5C 912.31,1434.17 893.476,1404.33 864.5,1381C 849.674,1370.42 834.674,1360.09 819.5,1350C 632.167,1234.33 444.833,1118.67 257.5,1003C 184.063,957.234 122.563,898.734 73,827.5C 28.1421,758.092 3.64206,682.092 -0.5,599.5C -0.5,582.167 -0.5,564.833 -0.5,547.5C 10.54,366.888 87.54,222.054 230.5,113C 381.185,6.27388 545.519,-21.7261 723.5,29C 849.346,69.5599 950.179,143.727 1026,251.5C 1089.26,346.296 1120.92,450.963 1121,565.5C 1123.14,587.267 1133.64,603.434 1152.5,614C 1179.84,623.442 1201.67,616.276 1218,592.5C 1223.17,582.818 1226,572.485 1226.5,561.5C 1224.68,485.889 1211.84,412.223 1188,340.5C 1148.97,231.913 1082.14,144.747 987.5,79C 941.748,48.6173 893.414,22.6173 842.5,1C 843.056,0.617425 843.389,0.117425 843.5,-0.5 Z"/></g>
<g><path style="opacity:0.995" fill="#caebfa" d="M 1443.5,1379.5 C 1443.5,1396.17 1443.5,1412.83 1443.5,1429.5C 1433.14,1548.1 1393.97,1656.1 1326,1753.5C 1250.35,1854.96 1150.85,1921.46 1027.5,1953C 829.953,2002.53 654.953,1960.53 502.5,1827C 382.703,1714.19 321.537,1575.02 319,1409.5C 315.453,1383.17 300.953,1366.67 275.5,1360C 243.491,1358.43 223.658,1373.27 216,1404.5C 214.581,1497.65 231.581,1587.32 267,1673.5C 313.698,1778.86 386.531,1861.03 485.5,1920C 515.891,1938.36 547.558,1954.36 580.5,1968C 585.319,1970.4 589.319,1973.73 592.5,1978C 587.981,1978.18 583.647,1978.68 579.5,1979.5C 566.833,1979.5 554.167,1979.5 541.5,1979.5C 452.378,1970.63 368.044,1945.47 288.5,1904C 201.863,1854.7 133.03,1787.2 82,1701.5C 53.7936,1653.55 31.7936,1602.89 16,1549.5C 6.2356,1512.98 0.735597,1475.98 -0.5,1438.5C -0.5,1434.17 -0.5,1429.83 -0.5,1425.5C -1.62014,1344.61 26.3799,1275.77 83.5,1219C 161.911,1149.65 251.578,1129.65 352.5,1159C 426.009,1185.17 479.175,1233.67 512,1304.5C 520.958,1325.33 526.958,1347 530,1369.5C 532.035,1409.15 536.702,1448.49 544,1487.5C 567.009,1588.14 623.175,1663.97 712.5,1715C 814.948,1769.51 919.282,1773.51 1025.5,1727C 1116.57,1681.26 1178.41,1610.09 1211,1513.5C 1229.41,1452.59 1231.08,1391.26 1216,1329.5C 1199.58,1274.46 1169.08,1228.96 1124.5,1193C 1113.01,1184.42 1101.34,1176.09 1089.5,1168C 887.166,1045.17 685.166,921.835 483.5,798C 446.191,774.363 410.857,748.029 377.5,719C 324.64,669.07 300.14,607.57 304,534.5C 313.553,433.986 364.387,363.486 456.5,323C 495.859,307.33 536.525,302.33 578.5,308C 585.487,309.078 592.153,311.078 598.5,314C 586.014,323.338 574.181,333.505 563,344.5C 515.218,399.08 503.218,460.746 527,529.5C 538.127,555.957 554.627,578.457 576.5,597C 611.148,621.327 646.481,644.66 682.5,667C 851.169,769.33 1019.17,872.663 1186.5,977C 1249.49,1016.98 1303.99,1066.48 1350,1125.5C 1405.98,1200.93 1437.15,1285.6 1443.5,1379.5 Z"/></g>
</svg>
